<?xml version="1.0" standalone="no"?>
<!DOCTYPE svg PUBLIC "-//W3C//DTD SVG 20010904//EN"
 "http://www.w3.org/TR/2001/REC-SVG-20010904/DTD/svg10.dtd">
<svg version="1.0" xmlns="http://www.w3.org/2000/svg"
 width="1024.000000pt" height="1024.000000pt" viewBox="0 0 1024.000000 1024.000000"
 preserveAspectRatio="xMidYMid meet">
<metadata>
Created by potrace 1.14, written by Peter Selinger 2001-2017
</metadata>
<g transform="translate(0.000000,1024.000000) scale(0.100000,-0.100000)"
fill="#000000" stroke="none">
<path d="M0 10000 l0 -240 40 0 40 0 0 40 c0 33 3 40 20 40 17 0 20 7 20 40 0
33 3 40 20 40 17 0 20 7 20 40 0 33 3 40 20 40 13 0 20 7 20 20 0 13 7 20 20
20 17 0 20 7 20 40 0 33 3 40 20 40 17 0 20 7 20 40 0 33 3 40 20 40 13 0 20
7 20 20 0 19 -7 20 -160 20 l-160 0 0 -240z"/>
<path d="M8640 10220 c0 -13 7 -20 20 -20 17 0 20 -7 20 -40 0 -33 3 -40 20
-40 17 0 20 -7 20 -40 l0 -40 40 0 c33 0 40 -3 40 -20 0 -13 7 -20 20 -20 18
0 20 -7 20 -60 0 -53 2 -60 20 -60 17 0 20 -7 20 -40 0 -33 3 -40 20 -40 13 0
20 -7 20 -20 0 -13 7 -20 20 -20 17 0 20 -7 20 -40 0 -34 3 -40 21 -40 21 0
22 -3 16 -80 -5 -79 -5 -80 19 -80 21 0 24 -4 24 -40 0 -33 3 -40 20 -40 17 0
20 7 20 40 0 33 3 40 20 40 18 0 20 -7 20 -60 0 -53 2 -60 20 -60 13 0 20 -7
20 -20 0 -13 7 -20 20 -20 13 0 20 -7 20 -20 0 -13 7 -20 20 -20 13 0 20 -7
20 -20 0 -17 7 -20 40 -20 33 0 40 -3 40 -20 0 -17 7 -20 40 -20 l40 0 0 -40
c0 -33 3 -40 20 -40 18 0 20 -7 20 -60 0 -53 2 -60 20 -60 13 0 20 7 20 20 0
13 7 20 20 20 18 0 20 -7 20 -60 l0 -60 40 0 40 0 0 -40 0 -40 40 0 40 0 0
-40 c0 -33 3 -40 20 -40 13 0 20 -7 20 -20 0 -13 7 -20 20 -20 13 0 20 -7 20
-20 0 -17 7 -20 40 -20 l40 0 0 -40 c0 -33 3 -40 20 -40 13 0 20 -7 20 -20 0
-13 7 -20 20 -20 17 0 20 -7 20 -40 0 -33 3 -40 20 -40 13 0 20 -7 20 -20 0
-17 7 -20 40 -20 l40 0 0 -40 c0 -33 3 -40 20 -40 13 0 20 -7 20 -20 0 -13 7
-20 20 -20 13 0 20 -7 20 -20 0 -13 -7 -20 -20 -20 -17 0 -20 -7 -20 -40 l0
-40 40 0 40 0 0 -40 c0 -33 3 -40 20 -40 18 0 20 -7 20 -60 0 -53 2 -60 20
-60 20 0 20 7 20 1100 l0 1100 -800 0 c-793 0 -800 0 -800 -20z m572 -44 c11
-17 -11 -46 -36 -46 -26 0 -39 27 -25 53 10 16 48 12 61 -7z m782 -321 c39
-17 76 -75 76 -120 0 -37 -23 -86 -54 -115 -22 -20 -38 -25 -83 -25 -65 -1
-74 8 -96 102 -11 49 -12 68 -2 97 7 19 10 38 6 42 -3 4 -1 4 5 1 6 -4 22 2
34 13 28 24 65 25 114 5z m-434 -201 c0 -9 11 -14 30 -14 23 0 30 -4 30 -20 0
-11 5 -20 10 -20 6 0 10 -9 10 -20 0 -13 -7 -20 -20 -20 -13 0 -20 -7 -20 -20
0 -17 -7 -20 -40 -20 -33 0 -40 3 -40 20 0 14 -7 20 -23 20 -13 0 -32 9 -42
20 -10 11 -25 20 -33 20 -10 0 -12 5 -7 18 4 9 10 26 12 37 4 18 11 20 69 17
47 -3 64 -7 64 -18z"/>
<path d="M8586 10184 c-4 -9 -4 -19 -1 -22 2 -3 7 3 11 12 4 9 4 19 1 22 -2 3
-7 -3 -11 -12z"/>
<path d="M4125 8856 c-215 -42 -442 -166 -615 -336 -154 -151 -175 -292 -49
-315 61 -11 195 36 168 59 -2 2 -36 -3 -74 -11 -134 -27 -162 16 -80 125 149
198 499 418 712 447 106 14 146 -15 145 -108 -1 -94 -51 -188 -225 -424 -180
-243 -214 -338 -137 -378 71 -37 209 -5 353 82 78 47 357 252 408 299 14 13
28 24 31 24 3 0 -8 -42 -24 -92 -17 -51 -33 -125 -35 -164 -5 -68 -4 -72 24
-104 26 -30 37 -34 91 -38 49 -3 70 0 114 20 152 71 296 235 369 421 25 66 30
72 56 72 36 0 41 14 11 29 -16 8 -24 22 -26 46 -7 83 -44 124 -88 95 -28 -18
-29 -34 -9 -94 37 -105 -44 -291 -185 -424 -119 -113 -197 -144 -243 -99 -18
19 -21 32 -19 88 4 110 46 217 144 371 48 75 46 99 -8 90 -29 -5 -59 -28 -143
-109 -176 -170 -291 -268 -422 -355 -155 -105 -278 -153 -314 -123 -8 7 -15
29 -15 49 0 47 35 105 182 303 130 174 154 211 196 294 61 122 50 204 -34 244
-56 27 -166 34 -259 16z"/>
<path d="M6377 8811 c-56 -28 -142 -97 -194 -155 -79 -86 -218 -281 -294 -409
-39 -67 -78 -132 -85 -143 -18 -29 -92 -64 -136 -64 -66 0 -67 4 -29 81 46 92
54 180 22 221 -58 74 -204 24 -240 -81 -6 -19 -11 -45 -11 -58 0 -14 -8 -37
-19 -51 -38 -55 -61 -112 -63 -158 -1 -38 3 -51 21 -66 43 -34 118 -16 188 46
42 38 52 42 77 35 31 -9 103 3 139 22 17 10 19 9 12 -7 -31 -77 -22 -97 41
-92 33 3 39 7 50 40 16 46 47 89 85 117 l28 21 22 -50 c67 -155 223 -173 399
-45 l45 33 -3 -39 c-3 -32 1 -43 26 -69 44 -44 116 -45 197 -2 51 28 178 141
196 175 22 41 -4 27 -75 -40 -88 -84 -153 -125 -202 -126 -45 -1 -56 15 -51
80 3 40 12 65 43 110 21 32 43 63 47 70 9 14 -25 53 -47 53 -22 0 -64 -49 -91
-106 -42 -88 -160 -164 -257 -164 -45 0 -71 11 -111 49 -25 23 -64 81 -54 81
31 0 134 28 174 46 93 44 140 126 97 168 -42 42 -143 2 -291 -117 -49 -38 -94
-75 -102 -81 -8 -6 -1 13 15 43 26 48 42 62 151 132 320 203 483 372 457 475
-11 45 -110 59 -177 25z m113 -56 c30 -36 -76 -168 -229 -284 -92 -70 -261
-184 -261 -176 0 25 196 282 276 362 97 97 182 136 214 98z m-923 -431 c29 -8
47 -55 39 -101 -14 -78 -37 -143 -50 -143 -8 0 -28 17 -46 37 l-33 37 24 20
c14 12 36 28 49 37 21 14 23 18 11 33 -15 18 -44 21 -72 6 -31 -17 -24 16 10
51 31 31 34 32 68 23z m674 -77 c-4 -12 -23 -32 -41 -45 -39 -26 -135 -56
-150 -47 -13 8 43 56 116 100 62 38 90 35 75 -8z m-733 -245 c-44 -46 -78 -59
-95 -36 -14 19 -10 44 13 111 l16 43 49 -42 49 -42 -32 -34z"/>
<path d="M6632 8433 c-7 -3 -18 -16 -23 -30 -20 -53 45 -97 85 -57 42 41 -7
109 -62 87z"/>
<path d="M5735 7559 c-11 -7 -30 -21 -42 -31 -12 -11 -26 -17 -31 -14 -5 3
-39 6 -76 7 -36 1 -66 6 -66 11 0 12 -52 1 -60 -12 -8 -12 -207 -52 -243 -48
-17 2 -32 8 -34 14 -7 22 63 44 139 45 59 0 68 2 48 10 -52 21 -200 -14 -220
-52 -8 -15 -5 -22 14 -34 27 -18 85 -15 194 11 35 7 65 14 67 14 2 0 -17 -30
-41 -67 -45 -69 -84 -158 -84 -193 0 -27 32 -42 64 -30 33 12 34 22 1 14 -22
-5 -25 -3 -25 18 0 14 5 40 11 59 16 47 113 195 136 207 17 10 80 15 145 13
l28 -1 -43 -57 c-57 -76 -127 -195 -127 -216 0 -32 37 -18 74 28 42 50 61 58
46 19 -22 -58 42 -87 97 -44 l26 20 14 -20 c10 -14 25 -20 54 -20 33 0 47 7
82 41 39 39 40 40 4 10 -39 -32 -79 -47 -96 -36 -16 9 -13 55 3 55 17 0 76 54
76 69 0 21 -32 24 -64 7 -17 -9 -44 -37 -58 -61 -48 -79 -130 -98 -99 -22 33
83 20 88 -59 25 -34 -27 -49 -35 -42 -22 6 12 18 26 26 33 8 7 13 18 10 25 -2
6 19 45 47 86 l52 73 18 -24 c21 -27 26 -10 7 22 -11 17 -10 22 12 39 33 26
60 26 60 0 0 -25 -75 -107 -142 -157 -27 -19 -47 -37 -44 -40 8 -8 145 97 181
140 43 50 45 91 5 94 -14 2 -34 -2 -45 -8z m105 -223 c0 -14 -48 -51 -56 -43
-6 6 36 57 47 57 5 0 9 -6 9 -14z"/>
<path d="M4508 7519 c-180 -43 -265 -132 -196 -201 15 -15 21 -32 19 -53 -4
-50 27 -70 108 -69 113 1 258 61 328 137 131 142 -14 246 -259 186z m251 -33
c14 -12 21 -31 21 -53 0 -29 -10 -44 -57 -92 -93 -92 -233 -146 -315 -122 -36
11 -39 15 -36 44 3 29 6 32 42 35 44 3 129 37 147 58 17 21 3 17 -41 -12 -41
-27 -130 -45 -130 -26 0 16 99 101 144 124 22 11 58 27 80 34 l41 14 -47 -5
c-65 -6 -141 -47 -208 -111 -31 -30 -62 -54 -68 -54 -22 0 -26 50 -5 77 24 34
104 78 173 97 80 22 231 18 259 -8z"/>
<path d="M4863 7348 c-6 -7 -17 -33 -26 -58 -8 -25 -18 -53 -22 -62 -5 -13 -2
-18 9 -18 9 0 16 4 16 8 0 12 70 92 80 92 5 0 3 -14 -3 -30 -26 -69 50 -94
116 -39 21 17 36 34 33 36 -3 3 -21 -8 -41 -26 -46 -40 -75 -41 -75 -3 0 15 9
42 20 60 20 32 19 52 -1 52 -5 0 -30 -19 -56 -42 -30 -28 -44 -36 -39 -23 22
54 15 86 -11 53z"/>
<path d="M6018 6582 c-47 -35 -109 -127 -152 -227 -31 -72 -38 -81 -71 -92
-59 -21 -121 -69 -171 -134 -49 -64 -115 -115 -138 -106 -33 13 -22 159 14
189 l20 17 -22 15 c-55 39 -157 0 -234 -89 -27 -31 -58 -62 -71 -70 -28 -19
-89 -29 -97 -17 -3 6 5 35 19 66 42 96 26 156 -41 156 -66 0 -111 -39 -118
-101 -1 -14 -15 -47 -30 -73 -26 -44 -37 -110 -22 -134 3 -6 -1 -17 -9 -25
-34 -34 -95 4 -245 150 l-95 92 55 1 c108 0 263 56 320 115 21 22 33 46 37 74
5 36 2 44 -25 70 -37 33 -79 45 -222 62 -177 20 -452 -4 -514 -44 -35 -23 -34
-41 2 -32 182 47 440 68 577 47 87 -14 119 -36 123 -86 6 -68 -81 -128 -247
-172 -83 -21 -116 -18 -140 12 -24 30 -25 27 68 139 49 59 50 60 24 63 -47 6
-68 -7 -112 -69 -31 -44 -46 -58 -54 -50 -12 12 -66 15 -83 3 -21 -14 -32 -47
-23 -69 5 -13 12 -23 16 -23 4 0 14 -4 22 -9 10 -7 1 -32 -43 -122 -43 -86
-56 -121 -54 -148 4 -46 21 -43 31 5 4 21 35 82 68 136 79 128 82 128 197 7
94 -99 185 -169 245 -189 48 -15 94 1 103 36 5 18 13 24 33 24 27 0 101 44
101 59 0 5 17 7 38 4 23 -3 53 1 76 11 38 16 38 16 33 -6 -9 -31 10 -58 39
-58 34 0 61 15 105 57 l36 34 6 -29 c3 -16 13 -37 22 -46 32 -31 106 -14 150
34 l20 22 5 -27 c11 -62 67 -58 140 11 l48 45 13 -43 c17 -52 50 -68 98 -48
37 15 131 100 131 119 0 7 -25 -10 -56 -38 -89 -81 -123 -66 -112 50 5 48 9
54 130 177 88 90 133 144 152 184 28 57 28 93 2 110 -25 17 -82 7 -118 -20z
m92 -23 c0 -47 -112 -211 -200 -294 -32 -30 -32 -30 -25 -5 14 48 57 145 90
205 57 102 135 157 135 94z m-1683 -274 c5 -17 -23 -49 -35 -41 -7 4 -12 18
-12 32 0 20 4 25 22 22 12 -2 23 -8 25 -13z m654 -46 c11 -22 6 -74 -13 -121
-13 -35 -21 -35 -47 -2 -23 29 -16 48 20 59 31 10 23 35 -11 35 -33 0 -38 11
-14 34 22 22 51 20 65 -5z m349 -37 c0 -14 -61 -106 -93 -139 -33 -35 -77 -45
-77 -18 0 50 109 164 158 165 6 0 12 -4 12 -8z m380 3 c0 -18 -47 -93 -82
-131 -37 -41 -65 -53 -81 -38 -8 8 19 73 41 98 40 45 122 92 122 71z m-795
-121 l30 -25 -28 -24 c-54 -48 -81 -27 -56 44 13 37 15 37 54 5z"/>
<path d="M4427 5263 c-66 -96 -88 -207 -93 -468 l-4 -200 -57 -21 c-67 -25
-79 -40 -104 -136 -23 -92 -43 -426 -37 -629 5 -137 7 -150 35 -211 19 -41 50
-83 83 -115 l52 -50 -38 -59 c-45 -69 -49 -76 -106 -171 -24 -40 -46 -73 -50
-73 -5 0 -8 13 -8 28 0 16 -14 50 -31 75 -50 76 -59 72 -38 -20 7 -32 8 -98 2
-197 l-8 -150 -45 -11 c-54 -14 -122 -48 -170 -84 -58 -45 -114 -74 -118 -62
-2 6 -28 18 -59 27 -30 9 -69 28 -86 43 -45 39 -60 46 -167 71 -107 25 -174
22 -272 -11 -32 -10 -59 -19 -61 -19 -8 0 -17 324 -19 660 -1 190 -3 339 -5
333 -3 -7 -13 -13 -24 -13 -15 0 -19 8 -20 38 -1 22 -3 29 -7 17 -4 -16 -7
-11 -17 20 l-13 40 -1 -33 c-1 -18 -5 -31 -10 -28 -5 4 -12 0 -14 -6 -3 -7 -6
25 -8 72 l-2 85 -9 -110 c-5 -60 -12 -263 -16 -450 l-7 -340 -31 -3 c-26 -3
-41 6 -86 47 -91 83 -355 229 -507 280 -65 22 -224 50 -306 53 -25 1 -45 5
-45 8 0 4 -26 16 -57 29 -32 12 -70 29 -85 37 -16 8 -28 12 -28 7 0 -4 -4 -3
-8 3 -7 11 -147 79 -147 72 0 -1 -11 7 -25 20 -22 20 -29 23 -46 21 -4 0 -10
3 -13 8 -11 14 -50 33 -71 33 -11 0 -20 6 -20 13 0 15 -47 44 -56 35 -3 -3
-19 7 -37 23 -17 16 -37 27 -44 25 -7 -3 -12 -2 -10 2 1 4 -1 7 -4 7 -3 0 -22
13 -42 28 -20 15 -37 25 -37 21 0 -4 -6 0 -13 11 -9 11 -19 15 -27 10 -9 -5
-11 -4 -6 3 5 8 0 12 -13 12 -27 0 -52 11 -46 19 2 4 -19 20 -48 36 -87 47
-120 65 -162 91 -22 14 -64 36 -92 49 -29 14 -62 34 -74 46 -12 12 -29 19 -40
16 -10 -3 -17 -1 -13 4 3 5 -1 9 -8 9 -7 0 -24 6 -38 13 -35 18 -115 43 -180
56 -107 21 -319 18 -392 -5 -17 -5 -18 -115 -18 -2125 l0 -2119 5120 0 5120 0
0 635 0 635 -25 10 c-14 5 -62 16 -108 24 -45 8 -100 19 -122 25 -59 15 -242
26 -230 13 6 -5 28 -13 50 -16 59 -8 267 -54 273 -60 7 -8 -347 4 -398 14 -37
7 -813 7 -845 0 -5 -1 -49 -2 -97 -1 -69 1 -86 4 -82 14 6 17 -70 24 -371 33
-115 4 -217 10 -225 15 -13 7 -12 8 3 9 9 0 17 4 17 9 0 13 48 22 137 26 95 4
124 25 38 26 -33 0 -53 3 -45 5 8 3 33 14 55 24 34 15 86 20 355 29 173 6 376
14 451 17 75 3 208 4 295 2 88 -1 228 -1 312 0 96 2 159 -1 167 -8 6 -5 39
-13 73 -16 48 -5 62 -11 70 -28 6 -11 11 -15 11 -8 1 17 49 15 68 -4 14 -14
14 -17 -6 -30 -11 -8 -21 -21 -21 -28 0 -16 153 -12 158 4 2 5 12 10 23 10 19
0 19 22 19 1040 0 725 -3 1040 -11 1040 -5 0 -7 -5 -3 -11 4 -7 1 -10 -7 -7
-23 8 -49 -10 -43 -30 4 -11 3 -13 -3 -5 -9 12 -28 4 -213 -85 -30 -15 -102
-53 -158 -84 -57 -32 -106 -58 -110 -58 -3 0 -13 -6 -21 -14 -9 -7 -43 -28
-76 -46 -33 -17 -85 -47 -115 -65 -230 -137 -583 -336 -625 -351 -11 -4 -42
-21 -69 -36 -54 -32 -332 -173 -410 -208 -26 -12 -118 -55 -204 -96 l-155 -74
-517 0 -518 0 -16 72 c-20 89 -81 193 -145 249 -54 48 -179 131 -269 179 -85
45 -112 78 -112 138 0 117 -34 232 -74 250 -30 13 -159 135 -175 164 -11 22
-5 38 58 169 38 79 73 158 77 174 4 17 13 42 20 57 11 22 12 69 4 260 -12 288
-27 420 -52 479 -17 41 -26 49 -87 76 l-68 30 -7 114 c-11 172 -53 380 -98
479 -6 14 -25 46 -42 72 -45 69 -72 67 -148 -11 -44 -46 -71 -87 -117 -183
-33 -68 -67 -152 -77 -188 -9 -36 -20 -68 -23 -72 -4 -4 -33 -4 -66 1 -114 18
-418 43 -513 42 -19 0 -61 -13 -95 -29 -112 -53 -106 -55 -161 54 -26 53 -58
119 -71 148 -28 64 -99 182 -129 215 -31 35 -92 71 -119 71 -17 0 -32 -12 -50
-37z m-1490 -1455 c-3 -7 -5 -2 -5 12 0 14 2 19 5 13 2 -7 2 -19 0 -25z m303
-1609 c151 -6 278 -14 282 -18 5 -4 11 -34 14 -68 6 -59 5 -62 -25 -95 -18
-18 -41 -54 -52 -80 l-21 -46 -61 -6 c-96 -10 -347 -16 -394 -10 -29 3 -43 10
-43 20 0 12 -13 14 -72 10 -40 -2 -98 -5 -128 -7 l-55 -2 45 -7 c41 -6 38 -7
-25 -7 -38 0 -60 2 -47 4 27 5 29 33 2 33 -13 0 -20 7 -20 20 0 17 -3 18 -26
10 -14 -6 -58 -9 -97 -9 -40 1 -64 3 -54 6 14 4 18 12 14 29 -5 27 7 31 29 9
9 -8 12 -15 8 -15 -5 0 -3 -5 3 -11 15 -15 63 -3 63 15 0 8 6 16 13 19 28 10
-13 28 -80 34 -49 4 -84 1 -119 -10 -27 -8 -69 -16 -94 -16 -757 -17 -1171
-20 -1163 -8 4 7 -9 8 -40 4 -32 -5 -49 -3 -54 6 -15 24 -11 34 12 29 12 -2
26 1 29 7 5 7 1 9 -8 5 -9 -3 -16 -1 -16 5 0 6 13 11 28 11 15 0 32 4 37 9 15
12 286 31 475 32 91 0 179 2 195 3 17 2 52 4 78 4 37 2 54 8 73 27 25 26 28
26 257 35 264 11 306 15 362 28 57 14 353 14 675 1z m-880 -223 c0 -11 -19
-15 -25 -6 -3 5 1 10 9 10 9 0 16 -2 16 -4z m-997 -23 c-7 -2 -21 -2 -30 0
-10 3 -4 5 12 5 17 0 24 -2 18 -5z m1037 -23 c0 -5 -9 -10 -21 -10 -11 0 -17
5 -14 10 3 6 13 10 21 10 8 0 14 -4 14 -10z m113 -7 c-7 -2 -19 -2 -25 0 -7 3
-2 5 12 5 14 0 19 -2 13 -5z m4177 -253 c160 -11 197 -15 315 -32 l80 -12 -42
-9 c-24 -6 -142 -6 -287 -2 l-246 7 0 29 c0 34 -15 32 180 19z m3396 -20 c93
-12 123 -24 121 -48 -1 -18 -17 -19 -542 -15 -341 3 -544 8 -550 15 -7 6 -2 9
15 7 14 -2 35 1 48 5 13 4 56 9 95 10 40 1 77 5 83 8 5 4 66 10 135 13 68 4
180 10 249 14 140 7 240 5 346 -9z m34 -266 c0 -17 -22 -14 -28 4 -2 7 3 12
12 12 9 0 16 -7 16 -16z"/>
<path d="M3115 2085 l-40 -13 45 -1 c25 -1 59 -5 77 -10 42 -12 50 -2 16 21
-32 21 -43 21 -98 3z"/>
<path d="M2908 5093 l-28 -4 0 -252 c0 -139 4 -258 8 -265 11 -16 73 -26 108
-18 l27 7 -5 258 c-3 143 -9 264 -12 270 -7 11 -43 12 -98 4z"/>
<path d="M2971 3894 c0 -11 3 -14 6 -6 3 7 2 16 -1 19 -3 4 -6 -2 -5 -13z"/>
</g>
</svg>
